<svg version="1.1" preserveAspectRatio="none" xmlns="http://www.w3.org/2000/svg" width="500" height="500" viewBox="0 0 500 500"><rect width="100%" height="100%" fill="#1C1C1C" fill-opacity="1"/><svg viewBox="37.1562 225.2538 602.3273 346.9462" width="333" height="191.81113756590474" x="83.5px" y="154.0944px" xmlns="http://www.w3.org/2000/svg" xmlns:xlink="http://www.w3.org/1999/xlink" preserveAspectRatio="none"><defs></defs><style>.companyName {fill:#EDEDED;fill-opacity:1;}.icon1 {fill:#EDEDED;fill-opacity:1;}.icon2 {fill:#F35F40;fill-opacity:1;}.icon3 {fill:#B2B2B1;fill-opacity:1;}.icon3-str {stroke:#B2B2B1;stroke-opacity:1;}.text {fill:#EDEDED;fill-opacity:1;}</style><g opacity="1" transform="rotate(0 241.0792 225.2538)">
<svg width="194.4814" height="191.1462" x="241.0792" y="225.2538" version="1.1" preserveAspectRatio="none" viewBox="3.878999948501587 5.0980000495910645 40.00199890136719 39.316001892089844">
  <g transform="matrix(1 0 0 1 0 0)" class="icon1"><g><path d="M23.881,44.414L3.879,29.408l5.022-7.53V5.098L19.837,18.77h8.094L38.86,5.098v16.78l5.021,7.53L23.881,44.414z    M7.037,28.869l16.844,12.638l16.85-12.638l-4.189-6.287V11.726l-7.5,9.36H18.72l-7.493-9.36v10.857L7.037,28.869z"></path></g></g>
</svg>
</g><g opacity="1" transform="rotate(0 37.1562 548.4)">
<svg width="602.3273" height="23.8" x="37.1562" y="548.4" version="1.1" preserveAspectRatio="none" viewBox="4.56 -29.88 761.1200000000001 30.08">
  <g transform="matrix(1 0 0 1 0 0)" class="text"><path id="id-6izo4zJp36" d="M4.56 0L4.56-28L15.96-28Q20.40-28 23.80-26.22Q27.20-24.44 29.08-21.26Q30.96-18.08 30.96-14L30.96-14Q30.96-9.92 29.08-6.74Q27.20-3.56 23.80-1.78Q20.40 0 15.96 0L15.96 0L4.56 0ZM7.52-2.56L15.80-2.56Q19.48-2.56 22.24-4.02Q25-5.48 26.52-8.06Q28.04-10.64 28.04-14L28.04-14Q28.04-17.36 26.52-19.94Q25-22.52 22.24-23.98Q19.48-25.44 15.80-25.44L15.80-25.44L7.52-25.44L7.52-2.56Z M40.20 0L40.20-21.04L43.04-21.04L43.04 0L40.20 0ZM41.64-25.64Q40.76-25.64 40.16-26.24Q39.56-26.84 39.56-27.68L39.56-27.68Q39.56-28.48 40.16-29.08Q40.76-29.68 41.64-29.68L41.64-29.68Q42.52-29.68 43.12-29.10Q43.72-28.52 43.72-27.72L43.72-27.72Q43.72-26.84 43.12-26.24Q42.52-25.64 41.64-25.64L41.64-25.64Z M70.80 0L67.56 0L60.88-8.80L54.16 0L50.96 0L59.28-10.80L51.36-21.04L54.56-21.04L60.88-12.80L67.20-21.04L70.32-21.04L62.40-10.80L70.80 0Z M78.72 0L78.72-21.04L81.56-21.04L81.56 0L78.72 0ZM80.16-25.64Q79.28-25.64 78.68-26.24Q78.08-26.84 78.08-27.68L78.08-27.68Q78.08-28.48 78.68-29.08Q79.28-29.68 80.16-29.68L80.16-29.68Q81.04-29.68 81.64-29.10Q82.24-28.52 82.24-27.72L82.24-27.72Q82.24-26.84 81.64-26.24Q81.04-25.64 80.16-25.64L80.16-25.64Z M102.76-3.32L103.76-1.28Q102.96-0.56 101.78-0.18Q100.60 0.20 99.32 0.20L99.32 0.20Q96.36 0.20 94.76-1.40Q93.16-3 93.16-5.92L93.16-5.92L93.16-18.64L89.40-18.64L89.40-21.04L93.16-21.04L93.16-25.64L96.00-25.64L96.00-21.04L102.40-21.04L102.40-18.64L96.00-18.64L96.00-6.08Q96.00-4.20 96.94-3.22Q97.88-2.24 99.64-2.24L99.64-2.24Q100.52-2.24 101.34-2.52Q102.16-2.80 102.76-3.32L102.76-3.32Z M126.40 0L126.40-28L137.80-28Q142.24-28 145.64-26.22Q149.04-24.44 150.92-21.26Q152.80-18.08 152.80-14L152.80-14Q152.80-9.92 150.92-6.74Q149.04-3.56 145.64-1.78Q142.24 0 137.80 0L137.80 0L126.40 0ZM129.36-2.56L137.64-2.56Q141.32-2.56 144.08-4.02Q146.84-5.48 148.36-8.06Q149.88-10.64 149.88-14L149.88-14Q149.88-17.36 148.36-19.94Q146.84-22.52 144.08-23.98Q141.32-25.44 137.64-25.44L137.64-25.44L129.36-25.44L129.36-2.56Z M180.40-10.52L180.36-9.64L162.76-9.64Q163-6.36 165.28-4.34Q167.56-2.32 171.04-2.32L171.04-2.32Q173-2.32 174.64-3.02Q176.28-3.72 177.48-5.08L177.48-5.08L179.08-3.24Q177.68-1.56 175.58-0.68Q173.48 0.20 170.96 0.20L170.96 0.20Q167.72 0.20 165.22-1.18Q162.72-2.56 161.32-5Q159.92-7.44 159.92-10.52L159.92-10.52Q159.92-13.60 161.26-16.04Q162.60-18.48 164.94-19.84Q167.28-21.20 170.20-21.20L170.20-21.20Q173.12-21.20 175.44-19.84Q177.76-18.48 179.08-16.06Q180.40-13.64 180.40-10.52L180.40-10.52ZM170.20-18.76Q167.16-18.76 165.10-16.82Q163.04-14.88 162.76-11.76L162.76-11.76L177.68-11.76Q177.40-14.88 175.34-16.82Q173.28-18.76 170.20-18.76L170.20-18.76Z M205.52-21.04L208.36-21.04L208.36 0L205.64 0L205.64-3.84Q204.52-1.92 202.56-0.86Q200.60 0.20 198.08 0.20L198.08 0.20Q193.96 0.20 191.58-2.10Q189.20-4.40 189.20-8.84L189.20-8.84L189.20-21.04L192.04-21.04L192.04-9.12Q192.04-5.80 193.68-4.08Q195.32-2.36 198.36-2.36L198.36-2.36Q201.68-2.36 203.60-4.38Q205.52-6.40 205.52-10L205.52-10L205.52-21.04Z M225.16 0.20Q222.60 0.20 220.26-0.54Q217.92-1.28 216.60-2.40L216.60-2.40L217.88-4.64Q219.20-3.60 221.20-2.94Q223.20-2.28 225.36-2.28L225.36-2.28Q228.24-2.28 229.62-3.18Q231-4.08 231-5.72L231-5.72Q231-6.88 230.24-7.54Q229.48-8.20 228.32-8.54Q227.16-8.88 225.24-9.20L225.24-9.20Q222.68-9.68 221.12-10.18Q219.56-10.68 218.46-11.88Q217.36-13.08 217.36-15.20L217.36-15.20Q217.36-17.84 219.56-19.52Q221.76-21.20 225.68-21.20L225.68-21.20Q227.72-21.20 229.76-20.66Q231.80-20.12 233.12-19.24L233.12-19.24L231.88-16.96Q229.28-18.76 225.68-18.76L225.68-18.76Q222.96-18.76 221.58-17.80Q220.20-16.84 220.20-15.28L220.20-15.28Q220.20-14.08 220.98-13.36Q221.76-12.64 222.92-12.30Q224.08-11.96 226.12-11.60L226.12-11.60Q228.64-11.12 230.16-10.64Q231.68-10.16 232.76-9Q233.84-7.84 233.84-5.80L233.84-5.80Q233.84-3.04 231.54-1.42Q229.24 0.20 225.16 0.20L225.16 0.20Z M262.92-27.48Q261.08-27.48 260.14-26.48Q259.20-25.48 259.20-23.52L259.20-23.52L259.20-21.04L265.68-21.04L265.68-18.64L259.28-18.64L259.28 0L256.44 0L256.44-18.64L252.68-18.64L252.68-21.04L256.44-21.04L256.44-23.64Q256.44-26.52 258.10-28.20Q259.76-29.88 262.80-29.88L262.80-29.88Q264-29.88 265.12-29.54Q266.24-29.20 267-28.56L267-28.56L266.04-26.44Q264.80-27.48 262.92-27.48L262.92-27.48Z M275.92 0L275.92-21.04L278.76-21.04L278.76 0L275.92 0ZM277.36-25.64Q276.48-25.64 275.88-26.24Q275.28-26.84 275.28-27.68L275.28-27.68Q275.28-28.48 275.88-29.08Q276.48-29.68 277.36-29.68L277.36-29.68Q278.24-29.68 278.84-29.10Q279.44-28.52 279.44-27.72L279.44-27.72Q279.44-26.84 278.84-26.24Q278.24-25.64 277.36-25.64L277.36-25.64Z M297.24-21.20Q301.36-21.20 303.56-19.14Q305.76-17.08 305.76-13.04L305.76-13.04L305.76 0L303.04 0L303.04-3.28Q302.08-1.64 300.22-0.72Q298.36 0.20 295.80 0.20L295.80 0.20Q292.28 0.20 290.20-1.48Q288.12-3.16 288.12-5.92L288.12-5.92Q288.12-8.60 290.06-10.24Q292.00-11.88 296.24-11.88L296.24-11.88L302.92-11.88L302.92-13.16Q302.92-15.88 301.40-17.30Q299.88-18.72 296.96-18.72L296.96-18.72Q294.96-18.72 293.12-18.06Q291.28-17.40 289.96-16.24L289.96-16.24L288.68-18.36Q290.28-19.72 292.52-20.46Q294.76-21.20 297.24-21.20L297.24-21.20ZM296.24-2.04Q298.64-2.04 300.36-3.14Q302.08-4.24 302.92-6.32L302.92-6.32L302.92-9.76L296.32-9.76Q290.92-9.76 290.92-6L290.92-6Q290.92-4.16 292.32-3.10Q293.72-2.04 296.24-2.04L296.24-2.04Z M326.76-3.32L327.76-1.28Q326.96-0.56 325.78-0.18Q324.60 0.20 323.32 0.20L323.32 0.20Q320.36 0.20 318.76-1.40Q317.16-3 317.16-5.92L317.16-5.92L317.16-18.64L313.40-18.64L313.40-21.04L317.16-21.04L317.16-25.64L320.00-25.64L320.00-21.04L326.40-21.04L326.40-18.64L320.00-18.64L320.00-6.08Q320.00-4.20 320.94-3.22Q321.88-2.24 323.64-2.24L323.64-2.24Q324.52-2.24 325.34-2.52Q326.16-2.80 326.76-3.32L326.76-3.32Z M349.80 0L349.80-29.68L352.64-29.68L352.64 0L349.80 0Z M379.88-21.04L382.72-21.04L382.72 0L380.00 0L380.00-3.84Q378.88-1.92 376.92-0.86Q374.96 0.20 372.44 0.20L372.44 0.20Q368.32 0.20 365.94-2.10Q363.56-4.40 363.56-8.84L363.56-8.84L363.56-21.04L366.40-21.04L366.40-9.12Q366.40-5.80 368.04-4.08Q369.68-2.36 372.72-2.36L372.72-2.36Q376.04-2.36 377.96-4.38Q379.88-6.40 379.88-10L379.88-10L379.88-21.04Z M410.52 0L407.28 0L400.60-8.80L393.88 0L390.68 0L399.00-10.80L391.08-21.04L394.28-21.04L400.60-12.80L406.92-21.04L410.04-21.04L402.12-10.80L410.52 0Z M450.48-10.52L450.44-9.64L432.84-9.64Q433.08-6.36 435.36-4.34Q437.64-2.32 441.12-2.32L441.12-2.32Q443.08-2.32 444.72-3.02Q446.36-3.72 447.56-5.08L447.56-5.08L449.16-3.24Q447.76-1.56 445.66-0.68Q443.56 0.20 441.04 0.20L441.04 0.20Q437.80 0.20 435.30-1.18Q432.80-2.56 431.40-5Q430.00-7.44 430.00-10.52L430.00-10.52Q430.00-13.60 431.34-16.04Q432.68-18.48 435.02-19.84Q437.36-21.20 440.28-21.20L440.28-21.20Q443.20-21.20 445.52-19.84Q447.84-18.48 449.16-16.06Q450.48-13.64 450.48-10.52L450.48-10.52ZM440.28-18.76Q437.24-18.76 435.18-16.82Q433.12-14.88 432.84-11.76L432.84-11.76L447.76-11.76Q447.48-14.88 445.42-16.82Q443.36-18.76 440.28-18.76L440.28-18.76Z M469.56-3.32L470.56-1.28Q469.76-0.56 468.58-0.18Q467.40 0.20 466.12 0.20L466.12 0.20Q463.16 0.20 461.56-1.40Q459.96-3 459.96-5.92L459.96-5.92L459.96-18.64L456.20-18.64L456.20-21.04L459.96-21.04L459.96-25.64L462.80-25.64L462.80-21.04L469.20-21.04L469.20-18.64L462.80-18.64L462.80-6.08Q462.80-4.20 463.74-3.22Q464.68-2.24 466.44-2.24L466.44-2.24Q467.32-2.24 468.14-2.52Q468.96-2.80 469.56-3.32L469.56-3.32Z M499.56-27.48Q497.72-27.48 496.78-26.48Q495.84-25.48 495.84-23.52L495.84-23.52L495.84-21.04L502.32-21.04L502.32-18.64L495.92-18.64L495.92 0L493.08 0L493.08-18.64L489.32-18.64L489.32-21.04L493.08-21.04L493.08-23.64Q493.08-26.52 494.74-28.20Q496.40-29.88 499.44-29.88L499.44-29.88Q500.64-29.88 501.76-29.54Q502.88-29.20 503.64-28.56L503.64-28.56L502.68-26.44Q501.44-27.48 499.56-27.48L499.56-27.48Z M516.32-21.20Q520.44-21.20 522.64-19.14Q524.84-17.08 524.84-13.04L524.84-13.04L524.84 0L522.12 0L522.12-3.28Q521.16-1.64 519.30-0.72Q517.44 0.20 514.88 0.20L514.88 0.20Q511.36 0.20 509.28-1.48Q507.20-3.16 507.20-5.92L507.20-5.92Q507.20-8.60 509.14-10.24Q511.08-11.88 515.32-11.88L515.32-11.88L522-11.88L522-13.16Q522-15.88 520.48-17.30Q518.96-18.72 516.04-18.72L516.04-18.72Q514.04-18.72 512.20-18.06Q510.36-17.40 509.04-16.24L509.04-16.24L507.76-18.36Q509.36-19.72 511.60-20.46Q513.84-21.20 516.32-21.20L516.32-21.20ZM515.32-2.04Q517.72-2.04 519.44-3.14Q521.16-4.24 522-6.32L522-6.32L522-9.76L515.40-9.76Q510.00-9.76 510.00-6L510.00-6Q510.00-4.16 511.40-3.10Q512.80-2.04 515.32-2.04L515.32-2.04Z M544.56 0.20Q541.44 0.20 538.98-1.16Q536.52-2.52 535.12-4.98Q533.72-7.44 533.72-10.52L533.72-10.52Q533.72-13.60 535.12-16.04Q536.52-18.48 538.98-19.84Q541.44-21.20 544.56-21.20L544.56-21.20Q547.28-21.20 549.42-20.14Q551.56-19.08 552.80-17.04L552.80-17.04L550.68-15.60Q549.64-17.16 548.04-17.94Q546.44-18.72 544.56-18.72L544.56-18.72Q542.28-18.72 540.46-17.70Q538.64-16.68 537.62-14.80Q536.60-12.92 536.60-10.52L536.60-10.52Q536.60-8.08 537.62-6.22Q538.64-4.36 540.46-3.34Q542.28-2.32 544.56-2.32L544.56-2.32Q546.44-2.32 548.04-3.08Q549.64-3.84 550.68-5.40L550.68-5.40L552.80-3.96Q551.56-1.92 549.40-0.86Q547.24 0.20 544.56 0.20L544.56 0.20Z M571.88-3.32L572.88-1.28Q572.08-0.56 570.90-0.18Q569.72 0.20 568.44 0.20L568.44 0.20Q565.48 0.20 563.88-1.40Q562.28-3 562.28-5.92L562.28-5.92L562.28-18.64L558.52-18.64L558.52-21.04L562.28-21.04L562.28-25.64L565.12-25.64L565.12-21.04L571.52-21.04L571.52-18.64L565.12-18.64L565.12-6.08Q565.12-4.20 566.06-3.22Q567-2.24 568.76-2.24L568.76-2.24Q569.64-2.24 570.46-2.52Q571.28-2.80 571.88-3.32L571.88-3.32Z M588.60-21.20Q592.72-21.20 594.92-19.14Q597.12-17.08 597.12-13.04L597.12-13.04L597.12 0L594.40 0L594.40-3.28Q593.44-1.64 591.58-0.72Q589.72 0.20 587.16 0.20L587.16 0.20Q583.64 0.20 581.56-1.48Q579.48-3.16 579.48-5.92L579.48-5.92Q579.48-8.60 581.42-10.24Q583.36-11.88 587.60-11.88L587.60-11.88L594.28-11.88L594.28-13.16Q594.28-15.88 592.76-17.30Q591.24-18.72 588.32-18.72L588.32-18.72Q586.32-18.72 584.48-18.06Q582.64-17.40 581.32-16.24L581.32-16.24L580.04-18.36Q581.64-19.72 583.88-20.46Q586.12-21.20 588.60-21.20L588.60-21.20ZM587.60-2.04Q590.00-2.04 591.72-3.14Q593.44-4.24 594.28-6.32L594.28-6.32L594.28-9.76L587.68-9.76Q582.28-9.76 582.28-6L582.28-6Q582.28-4.16 583.68-3.10Q585.08-2.04 587.60-2.04L587.60-2.04Z M640.08-10.52L640.04-9.64L622.44-9.64Q622.68-6.36 624.96-4.34Q627.24-2.32 630.72-2.32L630.72-2.32Q632.68-2.32 634.32-3.02Q635.96-3.72 637.16-5.08L637.16-5.08L638.76-3.24Q637.36-1.56 635.26-0.68Q633.16 0.20 630.64 0.20L630.64 0.20Q627.40 0.20 624.90-1.18Q622.40-2.56 621.00-5Q619.60-7.44 619.60-10.52L619.60-10.52Q619.60-13.60 620.94-16.04Q622.28-18.48 624.62-19.84Q626.96-21.20 629.88-21.20L629.88-21.20Q632.80-21.20 635.12-19.84Q637.44-18.48 638.76-16.06Q640.08-13.64 640.08-10.52L640.08-10.52ZM629.88-18.76Q626.84-18.76 624.78-16.82Q622.72-14.88 622.44-11.76L622.44-11.76L637.36-11.76Q637.08-14.88 635.02-16.82Q632.96-18.76 629.88-18.76L629.88-18.76Z M654.72 0.20Q652.16 0.20 649.82-0.54Q647.48-1.28 646.16-2.40L646.16-2.40L647.44-4.64Q648.76-3.60 650.76-2.94Q652.76-2.28 654.92-2.28L654.92-2.28Q657.80-2.28 659.18-3.18Q660.56-4.08 660.56-5.72L660.56-5.72Q660.56-6.88 659.80-7.54Q659.04-8.20 657.88-8.54Q656.72-8.88 654.80-9.20L654.80-9.20Q652.24-9.68 650.68-10.18Q649.12-10.68 648.02-11.88Q646.92-13.08 646.92-15.20L646.92-15.20Q646.92-17.84 649.12-19.52Q651.32-21.20 655.24-21.20L655.24-21.20Q657.28-21.20 659.32-20.66Q661.36-20.12 662.68-19.24L662.68-19.24L661.44-16.96Q658.84-18.76 655.24-18.76L655.24-18.76Q652.52-18.76 651.14-17.80Q649.76-16.84 649.76-15.28L649.76-15.28Q649.76-14.08 650.54-13.36Q651.32-12.64 652.48-12.30Q653.64-11.96 655.68-11.60L655.68-11.60Q658.20-11.12 659.72-10.64Q661.24-10.16 662.32-9Q663.40-7.84 663.40-5.80L663.40-5.80Q663.40-3.04 661.10-1.42Q658.80 0.20 654.72 0.20L654.72 0.20Z M681.92-3.32L682.92-1.28Q682.12-0.56 680.94-0.18Q679.76 0.20 678.48 0.20L678.48 0.20Q675.52 0.20 673.92-1.40Q672.32-3 672.32-5.92L672.32-5.92L672.32-18.64L668.56-18.64L668.56-21.04L672.32-21.04L672.32-25.64L675.16-25.64L675.16-21.04L681.56-21.04L681.56-18.64L675.16-18.64L675.16-6.08Q675.16-4.20 676.10-3.22Q677.04-2.24 678.80-2.24L678.80-2.24Q679.68-2.24 680.50-2.52Q681.32-2.80 681.92-3.32L681.92-3.32Z M704.96 0L704.96-29.68L707.80-29.68L707.80 0L704.96 0Z M735.04-21.04L737.88-21.04L737.88 0L735.16 0L735.16-3.84Q734.04-1.92 732.08-0.86Q730.12 0.20 727.60 0.20L727.60 0.20Q723.48 0.20 721.10-2.10Q718.72-4.40 718.72-8.84L718.72-8.84L718.72-21.04L721.56-21.04L721.56-9.12Q721.56-5.80 723.20-4.08Q724.84-2.36 727.88-2.36L727.88-2.36Q731.20-2.36 733.12-4.38Q735.04-6.40 735.04-10L735.04-10L735.04-21.04Z M765.68 0L762.44 0L755.76-8.80L749.04 0L745.84 0L754.16-10.80L746.24-21.04L749.44-21.04L755.76-12.80L762.08-21.04L765.20-21.04L757.28-10.80L765.68 0Z"/></g>
</svg>
</g><g opacity="1" transform="rotate(0 143.8385 456.4)">
<svg width="388.9627" height="70" x="143.8385" y="456.4" version="1.1" preserveAspectRatio="none" viewBox="1.52 -34.68 194.48 35">
  <g transform="matrix(1 0 0 1 0 0)" class="companyName"><path id="id-D6z1nYkh9" d="M7.72 0L1.52 0L1.52-34.36L12-34.36L14.88-13.40L17.76-34.36L28.32-34.36L28.32 0L22.04 0L22.04-24.76L18.08 0L11.92 0L7.72-24.76L7.72 0Z M34.16 0L34.16-34.36L44.72-34.36Q47.24-34.36 48.62-33.22Q50-32.08 50.48-30.02Q50.96-27.96 50.96-24.76L50.96-24.76Q50.96-21.84 50.20-20.20Q49.44-18.56 47.56-17.92L47.56-17.92Q49.12-17.60 49.82-16.36Q50.52-15.12 50.52-13L50.52-13L50.44 0L43.72 0L43.72-13.44Q43.72-14.88 43.16-15.28Q42.60-15.68 41.12-15.68L41.12-15.68L41.12 0L34.16 0ZM41.16-21.64L42.80-21.64Q44.24-21.64 44.24-24.76L44.24-24.76Q44.24-26.12 44.12-26.80Q44-27.48 43.68-27.74Q43.36-28 42.76-28L42.76-28L41.16-28L41.16-21.64Z M74.92 0L68.20 0L68.20-34.36L75.28-34.36L78.44-17.92L78.44-34.36L85.08-34.36L85.08 0L78.36 0L74.92-17.20L74.92 0Z M99.12 0.32Q94.96 0.32 92.80-2.22Q90.64-4.76 90.64-9.36L90.64-9.36L90.64-25.72Q90.64-30.16 92.80-32.42Q94.96-34.68 99.12-34.68L99.12-34.68Q103.28-34.68 105.44-32.42Q107.60-30.16 107.60-25.72L107.60-25.72L107.60-9.36Q107.60-4.72 105.44-2.20Q103.28 0.32 99.12 0.32L99.12 0.32ZM99.12-6Q100.04-6 100.36-6.80Q100.68-7.60 100.68-9.04L100.68-9.04L100.68-25.84Q100.68-26.96 100.38-27.66Q100.08-28.36 99.16-28.36L99.16-28.36Q97.44-28.36 97.44-25.76L97.44-25.76L97.44-9Q97.44-7.52 97.80-6.76Q98.16-6 99.12-6L99.12-6Z M113.16 0L113.16-34.36L122.48-34.36Q126.24-34.36 127.94-32.52Q129.64-30.68 129.64-26.52L129.64-26.52L129.64-25Q129.64-20.08 126.12-19.12L126.12-19.12Q128.28-18.56 129.16-16.52Q130.04-14.48 130.04-11.12L130.04-11.12Q130.04-5.64 128.40-2.82Q126.76 0 122.48 0L122.48 0L113.16 0ZM119.88-21.44L121.28-21.44Q122.16-21.44 122.48-22.10Q122.80-22.76 122.80-23.96L122.80-23.96L122.80-27.40Q122.80-29.08 121.32-29.08L121.32-29.08L119.88-29.08L119.88-21.44ZM120.56-6.04Q123.24-6.04 123.24-8.60L123.24-8.60L123.24-12.88Q123.24-14.44 122.78-15.24Q122.32-16.04 121.16-16.04L121.16-16.04L119.88-16.04L119.88-6.08L120.56-6.04Z M143.32 0.32Q139.16 0.32 137-2.22Q134.84-4.76 134.84-9.36L134.84-9.36L134.84-25.72Q134.84-30.16 137-32.42Q139.16-34.68 143.32-34.68L143.32-34.68Q147.48-34.68 149.64-32.42Q151.80-30.16 151.80-25.72L151.80-25.72L151.80-9.36Q151.80-4.72 149.64-2.20Q147.48 0.32 143.32 0.32L143.32 0.32ZM143.32-6Q144.24-6 144.56-6.80Q144.88-7.60 144.88-9.04L144.88-9.04L144.88-25.84Q144.88-26.96 144.58-27.66Q144.28-28.36 143.36-28.36L143.36-28.36Q141.64-28.36 141.64-25.76L141.64-25.76L141.64-9Q141.64-7.52 142-6.76Q142.36-6 143.32-6L143.32-6Z M157.36 0L157.36-34.36L166.84-34.36Q170.52-34.36 172.36-32.32Q174.20-30.28 174.24-26.28L174.24-26.28L174.32-10.20Q174.36-5.12 172.56-2.56Q170.76 0 166.60 0L166.60 0L157.36 0ZM164.28-6.08L165.48-6.08Q167.36-6.08 167.36-7.92L167.36-7.92L167.36-25.64Q167.36-26.80 167.18-27.38Q167-27.96 166.52-28.16Q166.04-28.36 165.04-28.36L165.04-28.36L164.28-28.36L164.28-6.08Z M190.52 0L184.04 0L184.04-11.32L178.56-34.36L185.36-34.36L187.28-22.72L189.20-34.36L196-34.36L190.52-11.32L190.52 0Z"/></g>
</svg>
</g></svg></svg>